<svg xmlns="http://www.w3.org/2000/svg" xmlns:xlink="http://www.w3.org/1999/xlink" viewBox="0 0 59.019 64.019" fill="#fff" fill-rule="evenodd" stroke="#000" stroke-linecap="round" stroke-linejoin="round"><use xlink:href="#B" x=".01" y=".01"/><defs><linearGradient y2="31.12%" x2="49.99%" y1="122.49%" x1="49.99%" id="A"><stop offset="0%" stop-color="#fff200"/><stop offset="1%" stop-color="#f15a29"/></linearGradient></defs><symbol id="B" overflow="visible"><path d="M26.246 7.306l-.051.251-.8.238-1.102.379-1.092.443a22.54 22.54 0 0 0-2.149 1.057l-2.005 1.259-.167-.077c-6.66-2.545-12.575.517-12.575.517-.54 7.084 2.66 11.55 3.293 12.36-.157.437-.305.88-.44 1.327-.492 1.606-.861 3.255-1.089 4.957l-.09.739C1.825 33.796 0 40.026 0 40.026 5.137 45.934 11.126 46.3 11.126 46.3c.006-.003.01-.01.016-.013.761 1.359 1.642 2.654 2.635 3.859.414.504.851.993 1.304 1.465-1.873 5.356.263 9.812.263 9.812 5.719.215 9.475-2.503 10.265-3.129.569.193 1.147.363 1.729.514 1.757.453 3.557.72 5.356.797.45.019.9.029 1.346.026h.218l.141-.003.283-.01.279-.013.006.01C37.661 63.457 42.4 64 42.4 64c3.37-3.553 3.563-7.078 3.563-7.839v-.051c0-.064-.003-.106-.003-.106-.003-.055-.003-.106-.01-.164.707-.495 1.382-1.028 2.021-1.6a21 21 0 0 0 3.505-4.109c.093-.141.183-.283.27-.427 3.814.219 6.503-2.361 6.503-2.361-.633-3.974-2.898-5.912-3.37-6.278 0 0-.019-.016-.048-.035s-.045-.032-.045-.032a1.35 1.35 0 0 0-.084-.055l.058-.716c.029-.427.039-.858.042-1.282l-.003-.318-.003-.161v-.08c0-.109-.003-.068-.003-.109l-.013-.267-.019-.36c-.006-.125-.016-.231-.026-.344l-.032-.331-.039-.331-.045-.328c-.064-.437-.148-.871-.247-1.298-.398-1.712-1.067-3.338-1.95-4.8s-1.982-2.757-3.219-3.846-2.625-1.97-4.08-2.625c-1.431-.644-2.951-1.071-4.508-1.269a15.91 15.91 0 0 0-2.271-.129l-.28.006-.071.003c-.019 0-.106.003-.096.003l-.116.006-.279.019a7.4 7.4 0 0 0-.308.026c-.386.039-.768.09-1.147.161a12.76 12.76 0 0 0-4.193 1.581c-1.256.752-2.349 1.693-3.239 2.76s-1.578 2.243-2.053 3.464a12.28 12.28 0 0 0-.816 3.704 10.84 10.84 0 0 0-.019.912 5.27 5.27 0 0 0 .006.225l.01.244c.01.148.022.292.035.437.061.62.173 1.215.341 1.79.331 1.147.864 2.185 1.52 3.065a9.52 9.52 0 0 0 2.272 2.182 9.3 9.3 0 0 0 2.602 1.237c.884.26 1.761.373 2.586.369.103 0 .206-.003.308-.006.055 0 .109-.006.164-.006l.164-.01.263-.026c.019 0 .048-.007.074-.01l.08-.01c.055-.006.106-.016.161-.022.109-.013.202-.035.299-.051s.193-.039.289-.064c.19-.042.373-.1.556-.154.36-.119.697-.263 1.012-.424s.604-.344.874-.533a5.82 5.82 0 0 0 .225-.17.66.66 0 0 0 .103-.932c-.202-.247-.549-.312-.826-.157-.067.039-.138.074-.209.109-.241.116-.492.225-.758.312a6.72 6.72 0 0 1-.832.206c-.145.019-.289.042-.437.055a1.74 1.74 0 0 1-.225.013c-.074.003-.154.01-.222.006s-.141-.003-.215-.003l-.27-.013s-.045 0-.01-.003l-.029-.003-.061-.006c-.042-.003-.08-.006-.122-.013l-.241-.032c-.646-.09-1.301-.28-1.931-.565s-1.237-.678-1.783-1.169a6.77 6.77 0 0 1-1.394-1.748 6.56 6.56 0 0 1-.755-2.185c-.061-.389-.087-.79-.077-1.182l.016-.325c0 .029.003-.016.003-.019l.003-.039.006-.08c.003-.055.01-.106.016-.161.022-.212.055-.427.093-.636a8.46 8.46 0 0 1 2.458-4.601 8.53 8.53 0 0 1 1.057-.861 8.25 8.25 0 0 1 1.195-.681 8.38 8.38 0 0 1 1.301-.472c.447-.119.906-.199 1.372-.241a8.43 8.43 0 0 1 .7-.029c.061 0 .109.003.157.003l.19.006.119.003c.048 0 0 0 .023.003l.238.016c.504.042 1.009.113 1.504.225a10.73 10.73 0 0 1 2.856 1.083 10.5 10.5 0 0 1 4.273 4.434 10.13 10.13 0 0 1 .97 2.985c.039.26.071.524.093.787l.016.199.01.199c.003.068.003.132.006.199s.003.138.003.186v.17l-.003.193-.023.466c-.022.286-.045.575-.084.861s-.084.565-.135.848c-.058.28-.116.559-.19.835-.138.556-.318 1.099-.527 1.632-.421 1.067-.983 2.079-1.661 3.014a13.59 13.59 0 0 1-5.32 4.35c-1.054.476-2.166.826-3.309 1.015-.572.096-1.15.154-1.729.173l-.106.003h-.093l-.186.003h-.427c.08 0-.013 0-.01-.003l-.058-.003c-.312-.006-.62-.022-.929-.045a17.73 17.73 0 0 1-3.647-.659 17.98 17.98 0 0 1-3.425-1.382c-2.175-1.163-4.119-2.757-5.642-4.678a18.14 18.14 0 0 1-1.986-3.068c-.553-1.083-.986-2.217-1.308-3.377a17.72 17.72 0 0 1-.594-3.544l-.016-.279v-.048l-.01-.296-.003-.048v-.206l-.003-.279v-.183c0-.145.006-.292.01-.437a20.59 20.59 0 0 1 .148-1.806 23.97 23.97 0 0 1 .302-1.825c.125-.604.273-1.205.44-1.793.337-1.179.758-2.323 1.256-3.402.999-2.162 2.31-4.068 3.884-5.603.392-.386.8-.749 1.224-1.089a16.47 16.47 0 0 1 1.317-.951c.45-.299.916-.569 1.394-.819.238-.129.482-.241.726-.36l.37-.164c.122-.055.247-.109.373-.157.498-.212 1.012-.389 1.526-.556l.389-.119c.129-.042.263-.071.392-.109.26-.074.527-.135.79-.202.132-.035.267-.058.398-.087l.402-.084.402-.074.202-.035.202-.032.405-.061c.151-.026.305-.039.456-.061l.453-.055.572-.058.112-.006.459-.029.228-.016s.084-.003.01-.003l.048-.003.096-.003.392-.019a24.89 24.89 0 0 1 1.549 0c1.025.042 2.031.154 3.007.334a21 21 0 0 1 5.462 1.815 22.01 22.01 0 0 1 4.459 2.908l.241.206.235.209c.157.138.308.283.459.421s.296.286.443.427l.424.434c.549.582 1.06 1.173 1.52 1.767a22.99 22.99 0 0 1 2.246 3.512c.039.071.074.141.109.212l.103.212c.068.138.138.276.199.414l.19.408.173.398a26.83 26.83 0 0 1 .582 1.51 24.61 24.61 0 0 1 .62 2.063c.061.241.289.402.537.379.257-.022.453-.235.459-.492.013-.646-.003-1.407-.077-2.275-.096-1.073-.28-2.316-.643-3.682a22.96 22.96 0 0 0-1.658-4.411c-.774-1.549-1.783-3.161-3.094-4.72-.511-.611-1.07-1.215-1.674-1.802.9-3.579-1.096-6.683-1.096-6.683-3.444-.215-5.635 1.07-6.448 1.658l-.411-.173c-.588-.238-1.189-.459-1.809-.655s-1.253-.376-1.899-.527-1.308-.279-1.979-.382l-.353-.051C36.289 2.008 31.974 0 31.974 0c-4.813 3.036-5.729 7.306-5.729 7.306" stroke="none" fill="url(#A)" fill-rule="nonzero"/></symbol></svg>