<svg version="1.0" xmlns="http://www.w3.org/2000/svg"
 width="150.000000pt" height="150.000000pt" viewBox="0 0 140.000000 140.000000"
 preserveAspectRatio="xMidYMid meet">
<g transform="translate(-20.000000,150.000000) scale(0.120000,-0.120000)"
fill="#fff" stroke="none">
<path d="M168 1050 c0 -3 -2 -146 -2 -317 l-1 -313 66 0 c45 0 68 4 71 12 2 7
4 86 3 176 0 125 2 162 12 162 7 0 13 -9 13 -20 0 -11 5 -20 10 -20 6 0 10
-11 10 -25 0 -16 6 -25 15 -25 8 0 14 -6 12 -12 -1 -7 4 -12 11 -10 6 1 12 -5
12 -13 0 -8 5 -15 10 -15 6 0 10 -7 10 -15 0 -9 11 -26 25 -39 14 -13 25 -31
25 -40 0 -9 5 -16 10 -16 6 0 10 -7 10 -15 0 -8 7 -15 16 -15 8 0 12 -4 9 -10
-3 -5 1 -10 9 -10 10 0 16 -9 16 -25 l0 -25 93 1 93 1 0 316 -1 317 -80 0 -80
0 -2 -159 c0 -99 -5 -162 -12 -169 -8 -8 -11 -5 -11 12 0 14 -14 37 -35 57
-19 18 -35 42 -35 53 0 12 -6 21 -16 21 -8 0 -12 5 -9 10 3 6 -1 10 -9 10 -10
0 -16 9 -16 21 0 12 -10 30 -22 41 -12 10 -23 25 -24 33 -1 8 -15 27 -30 42
-25 25 -34 28 -101 28 -40 0 -74 -2 -75 -5z"/>
<path d="M799 1055 c0 0 -1 -31 -2 -70 l-1 -70 100 -2 c54 -1 102 -2 106 -2 5
-1 8 -97 7 -213 0 -117 0 -228 0 -245 l1 -33 80 0 80 0 0 245 0 245 23 1 c12
0 60 2 106 2 l85 2 -1 55 c-1 30 -1 62 -2 70 -1 13 -40 15 -291 15 -159 0
-290 0 -291 0z"/>
</g>
</svg>
