<?xml version="1.0" standalone="no"?>
<!DOCTYPE svg PUBLIC "-//W3C//DTD SVG 20010904//EN"
 "http://www.w3.org/TR/2001/REC-SVG-20010904/DTD/svg10.dtd">
<svg version="1.0" xmlns="http://www.w3.org/2000/svg"
 width="262.000000pt" height="262.000000pt" viewBox="0 0 262.000000 262.000000"
 preserveAspectRatio="xMidYMid meet">
<g transform="translate(0.000000,262.000000) scale(0.100000,-0.100000)" fill="#ccc" stroke="none">
<path d="M1635 2590 c-2 -4 -16 -45 -31 -91 -56 -180 -143 -367 -241 -517
l-54 -84 -25 34 c-59 78 -151 246 -209 380 -22 53 -85 246 -85 264 0 8 -9 14
-20 14 -22 0 -111 -28 -122 -39 -10 -9 33 -214 67 -321 39 -121 107 -275 171
-388 31 -53 60 -101 65 -107 5 -5 9 -13 9 -18 0 -8 -182 -193 -242 -245 l-26
-24 -56 36 c-31 20 -59 36 -61 36 -3 0 -51 22 -108 49 -167 80 -586 210 -617
191 -6 -4 -19 -33 -30 -66 l-18 -59 107 -36 c58 -19 115 -39 126 -43 11 -4 34
-13 50 -19 54 -19 249 -115 295 -144 25 -16 65 -42 88 -57 l44 -27 -86 -55
c-161 -102 -330 -178 -518 -234 -56 -17 -103 -31 -104 -33 -1 -1 7 -31 19 -67
24 -70 21 -69 102 -56 241 38 539 154 748 290 l25 17 136 -133 135 -133 -31
-50 c-106 -168 -239 -515 -286 -746 l-9 -46 68 -20 68 -20 47 141 c52 154 150
357 231 478 46 70 52 76 65 60 18 -21 88 -128 107 -162 83 -153 139 -286 181
-427 28 -93 28 -93 110 -66 l52 17 -6 45 c-25 211 -151 551 -271 730 -21 32
-33 61 -30 71 3 9 62 72 130 140 122 119 126 122 148 107 49 -32 177 -97 270
-136 92 -39 318 -115 375 -126 15 -3 60 -14 101 -24 41 -11 78 -18 81 -16 12
7 42 124 35 135 -3 6 -13 10 -21 10 -30 0 -261 84 -364 132 -101 47 -310 167
-310 178 0 10 167 111 262 159 106 53 248 109 357 139 40 12 76 24 79 27 3 3
-3 33 -14 68 -20 61 -21 62 -55 59 -215 -20 -609 -166 -790 -293 -25 -17 -26
-17 -55 7 -16 14 -77 72 -136 131 l-107 106 35 61 c53 92 127 249 168 359 37
98 116 377 116 407 0 11 -21 23 -65 36 -36 12 -68 18 -70 14z m-225 -1170 c56
-55 106 -100 113 -100 7 0 -24 -35 -68 -78 -44 -42 -94 -94 -112 -114 l-31
-36 -49 51 c-28 29 -78 78 -112 110 l-62 57 57 52 c31 29 79 76 107 105 28 29
52 53 54 53 2 0 48 -45 103 -100z"/>
</g>
</svg>
