<svg width="138" height="120" viewBox="0 0 135 120" fill="none" xmlns="http://www.w3.org/2000/svg">
<path d="M68.6229 55.6944L23.1614 5.69726C24.9249 3.9339 26.979 2.54834 29.3237 1.54058C31.6686 0.532986 34.1878 0.0194585 36.8813 0C39.7422 0.0218842 42.3631 0.588703 44.7441 1.70046C47.1253 2.81237 49.194 4.33842 50.9501 6.27861L68.6232 25.5795L86.18 6.27861C87.9992 4.33842 90.1163 2.81237 92.5313 1.70045C94.9464 0.588697 97.5576 0.0218796 100.365 0C103.059 0.019461 105.578 0.532989 107.923 1.54058C110.267 2.54834 112.322 3.9339 114.085 5.69726L68.6221 55.6931" fill="black"/>
<path d="M68.6221 63.3449L114.084 113.342C112.32 115.105 110.266 116.491 107.921 117.499C105.576 118.506 103.057 119.02 100.364 119.039C97.5029 119.017 94.8819 118.451 92.5009 117.339C90.1197 116.227 88.051 114.701 86.2949 112.761L68.6218 93.4598L51.065 112.761C49.2458 114.701 47.1287 116.227 44.7137 117.339C42.2986 118.451 39.6874 119.017 36.88 119.039C34.1863 119.02 31.6672 118.506 29.3224 117.499C26.9776 116.491 24.9235 115.105 23.16 113.342L68.6229 63.3462" fill="black"/>
<path d="M64.7985 59.5203L30.5535 21.9657C28.5616 19.8413 26.2436 18.1704 23.5994 16.953C20.9551 15.7357 18.0961 15.1151 15.0222 15.0912C12.0729 15.1125 9.31464 15.6747 6.74732 16.778C4.17998 17.8814 1.93092 19.3984 0.00012207 21.3291L34.7546 59.5208L0.00012207 97.7125C1.93092 99.7043 4.17998 101.259 6.74732 102.375C9.31464 103.492 12.0729 104.059 15.0222 104.078C18.104 104.054 20.979 103.433 23.6471 102.216C26.3152 100.999 28.6173 99.3277 30.5535 97.2033L64.7984 59.5204" fill="#E57000"/>
<path d="M72.4455 59.5203L106.691 21.9657C108.682 19.8413 111 18.1704 113.645 16.953C116.289 15.7357 119.148 15.1151 122.222 15.0912C125.171 15.1125 127.929 15.6747 130.497 16.778C133.064 17.8814 135.313 19.3984 137.244 21.3291L102.489 59.5208L137.244 97.7125C135.313 99.7043 133.064 101.259 130.497 102.375C127.929 103.492 125.171 104.059 122.222 104.078C119.14 104.054 116.265 103.433 113.597 102.216C110.929 100.999 108.627 99.3277 106.691 97.2033L72.4456 59.5204" fill="#E57000"/>
</svg>
