<?xml version="1.0" encoding="utf-8"?>
<!-- Generator: Adobe Illustrator 16.0.0, SVG Export Plug-In . SVG Version: 6.00 Build 0)  -->
<!DOCTYPE svg PUBLIC "-//W3C//DTD SVG 1.1//EN" "http://www.w3.org/Graphics/SVG/1.1/DTD/svg11.dtd">
<svg version="1.1" id="Layer_1" xmlns="http://www.w3.org/2000/svg" xmlns:xlink="http://www.w3.org/1999/xlink" x="0px" y="0px"
	 width="252px" height="252px" viewBox="-479.5 280.5 252 252" enable-background="new -479.5 280.5 252 252" xml:space="preserve">
<circle fill="#00BB88" cx="-353.252" cy="406.252" r="120.248"/>
<g enable-background="new    ">
	<path fill="#FFFFFF" d="M-300.633,342.973l-9.979,23.363c-17.156-9.544-34.095-13.125-45.799-12.695
		c-15.238,0.558-24.966,6.664-24.585,17.043c1.237,33.789,84.054,12.621,85.868,68.281c1.012,27.604-22.658,45.499-56.668,46.744
		c-24.292,0.891-47.623-8.206-64.057-22.2l10.438-22.938c16.434,13.994,36.601,21.217,53.164,20.609
		c18.107-0.664,28.68-7.906,28.242-19.83c-1.264-34.451-84.035-12.181-86.049-67.168c-0.971-26.502,21.169-43.896,54.736-45.127
		C-335.225,328.318-315.335,334.002-300.633,342.973z"/>
</g>
</svg>
