<?xml version="1.0" encoding="utf-8"?>
<!-- Generator: Adobe Illustrator 24.1.3, SVG Export Plug-In . SVG Version: 6.00 Build 0)  -->
<svg version="1.1" id="Layer_1" xmlns="http://www.w3.org/2000/svg" xmlns:xlink="http://www.w3.org/1999/xlink" x="0px" y="0px"
	 viewBox="0 0 64 64" style="enable-background:new 0 0 64 64;" xml:space="preserve">
<style type="text/css">
	.st0{fill:#F6D2CA;}
	.st1{fill:#0D0C0B;}
	.st2{fill:#4695D1;}
	.st3{fill:#4F4745;}
	.st4{fill:#FDFDFD;}
</style>
<g>
	<path class="st0" d="M4.81,48.79c-0.87,0.14-1.21-0.43-1.53-1.07c-1.55-3.11-1.45-6.11,0.56-8.99c2.13,0.74,2.37,0.54,2.21-1.85
		c0.19-0.01,0.38-0.02,0.56-0.02c1.35,1.19,1.9,1.06,2.73-0.64c0.81-0.29,0.7-1.06,0.85-1.67c0.78-3.19,2.37-5.9,4.81-8.13
		c3.07-1.8,6.31-3.2,9.93-3.3c6.72-0.18,11.41,3.11,14.67,8.68c0.41,0.69,0.76,1.37,1.63,1.56c2.7,1.89,5.64,3.33,8.71,4.62
		c-0.71-1.33-1.37-2.65-2.8-3.32l0.01,0.01c-0.1-2.5-2.43-3.78-3.34-5.9c1.74-0.36,3.24,0.49,4.8,0.79
		c2.89,0.56,5.72,1.43,8.68,1.64c1.44,4.1,1.91,8.33,1.59,12.63c-0.27,3.59-0.93,7.13-2.73,10.32c-2.3,4.08-6.06,6.04-10.58,6.52
		c-2.24,0.24-4.19,0.98-6.02,2.12c-2.72,1.71-5.54,1.4-8.35,0.43c-1.48-0.51-2.95-1.08-4.34-1.84c-2.11-1.15-4.5-1.47-6.84-1.83
		c-4.33-0.66-7.25-3-8.68-7.04c-0.43-1.23-1.03-1.67-2.29-1.53c-0.5,0.06-1.23,0.29-1.41-0.58c1.92-0.76,2.56-1.6,2.19-2.87
		c-0.34-1.15-1.89-1.88-3.26-1.49C5.16,46.43,4.72,47.45,4.81,48.79z M50.71,44.08c-2.87,0.52-5.71,1.17-8.44,2.21
		c-0.45,0.04-0.97-0.13-1.32,0.47c0.09,0.22,0.15,0.54,0.33,0.76c1.79,2.27,4.26,3.45,6.98,4.24c0.6,0.17,0.97-0.3,1.45-0.46
		c3.31-0.06,7.7-5.35,7.43-9.02c-0.26,0.08-0.5,0.15-0.75,0.23C54.48,43.04,52.59,43.56,50.71,44.08z M17.5,29.96
		c-0.03-0.06-0.06-0.11-0.08-0.17c0,0.03-0.02,0.07,0,0.08c0.03,0.03,0.07,0.05,0.11,0.07c-0.11,3.03-0.24,6.06-0.32,9.1
		c-0.02,0.79-0.4,1.21-1.04,1.6c-1.81,1.09-3.57,2.26-5.39,3.34c-0.66,0.39-1.01,0.78-0.93,1.6c0.08,0.86,0.71,0.94,1.29,1.16
		c2.03,0.76,4.06,1.52,6.09,2.27c0.44,0.16,0.86,0.25,0.96,0.86c0.31,1.9,1.11,3.67,1.34,5.61c0.14,1.25,0.58,2.51,1.33,3.75
		c2.16-2.66,4.22-5.19,6.43-7.92c3.23-0.16,6.7,1.23,10.4,0.31c-1.61-2.38-3.15-4.75-4.78-7.05c-0.67-0.95-0.82-1.77-0.34-2.87
		c1.14-2.57,2.14-5.2,3.18-7.77c-0.55-0.38-0.95-0.16-1.34-0.05c-2.44,0.68-4.9,1.31-7.32,2.07c-0.91,0.28-1.55,0.24-2.29-0.41
		c-1.9-1.66-3.87-3.25-5.86-4.81C18.53,30.39,18.24,29.72,17.5,29.96z M46.71,53.56c-4.41,2.71-9.28,3.41-14.22,4.24
		C37.18,60.58,45.87,58.02,46.71,53.56z"/>
	<path class="st1" d="M41.23,33.35c-0.87-0.19-1.22-0.86-1.63-1.56c-3.25-5.57-7.95-8.86-14.67-8.68c-3.62,0.1-6.86,1.5-9.93,3.3
		c-0.31-0.83-0.62-1.65-0.93-2.48c0.44-0.29,0.21-0.62,0.08-0.96c-1.24-3.14-1.69-6.51-2.78-9.68c-0.34-0.99,0-1.43,0.72-1.93
		c2.43-1.67,4.8-3.42,7.28-5.01c1.07-0.68,2.07-1.6,3.62-1.8c-0.17,2.59-2.07,4.53-2.47,7.14c4.69-2.38,9.18-4.66,13.68-6.94
		c0.08,0.12,0.15,0.23,0.23,0.35c-1.15,2.24-2.3,4.49-3.6,7.03c5.16-1.11,9.96-2.15,14.77-3.19c0.03,0.08,0.06,0.15,0.09,0.23
		c-2.65,1.92-5.31,3.84-8.15,5.9c5.59,1,10.87,1.94,16.14,2.88c0.04,0.14,0.08,0.28,0.12,0.41c-3.75,1.77-7.51,3.54-11.48,5.41
		c3.3,1.64,6.35,3.16,9.4,4.68c-3.65-0.25-7.13-1.33-11.18-1.73c2.11,2.8,3.93,5.22,5.76,7.63c0.2,0.26,0.5,0.38,0.85,0.32
		c0,0-0.01-0.01-0.01-0.01c-0.58,0.61-1.15,0.31-1.81,0.08C43.96,34.26,42.68,33.56,41.23,33.35z"/>
	<path class="st2" d="M47.14,34.65c-0.35,0.07-0.65-0.05-0.85-0.32c-1.83-2.41-3.65-4.83-5.76-7.63c4.05,0.4,7.53,1.49,11.18,1.73
		c-3.05-1.52-6.1-3.03-9.4-4.68c3.97-1.87,7.73-3.64,11.48-5.41c-0.04-0.14-0.08-0.28-0.12-0.41C48.4,17,43.12,16.06,37.53,15.07
		c2.85-2.06,5.5-3.98,8.15-5.9c-0.03-0.08-0.06-0.15-0.09-0.23c-4.81,1.04-9.62,2.07-14.77,3.19c1.3-2.54,2.45-4.79,3.6-7.03
		c-0.08-0.12-0.15-0.23-0.23-0.35c-4.5,2.28-9,4.57-13.68,6.94c0.4-2.61,2.3-4.54,2.47-7.14c-1.55,0.2-2.55,1.12-3.62,1.8
		c-2.48,1.59-4.85,3.35-7.28,5.01c-0.72,0.49-1.06,0.93-0.72,1.93c1.1,3.17,1.54,6.54,2.78,9.68c0.13,0.34,0.36,0.67-0.08,0.96
		c-1.73-2.81-2.71-5.96-4.15-8.9c-0.64-1.31-1.17-2.67-1.81-4.15c6.18-3.64,12.3-7.23,18.42-10.83c0.12,0.07,0.25,0.13,0.37,0.2
		c-1.12,2.46-2.24,4.92-3.36,7.39c0.12,0.1,0.24,0.19,0.36,0.29C29.32,5.29,34.74,2.64,40.15,0c0.08,0.09,0.16,0.19,0.25,0.28
		c-2.01,2.88-4.03,5.76-6.29,8.99c6.85-1.24,13.33-2.42,19.81-3.59c0.05,0.12,0.09,0.25,0.14,0.37c-4.12,2.59-8.24,5.18-12.69,7.97
		c7.07,1.09,13.74,1.89,20.42,2.64c0,0.26-0.01,0.52-0.01,0.77c-4.25,1.67-8.5,3.33-12.74,5c-0.89,0.3-1.78,0.59-3.02,1
		c3.46,2.09,6.58,3.99,9.71,5.88c0.43,0.7,1.61,0.79,1.57,1.87c-2.96-0.21-5.79-1.07-8.68-1.64c-1.57-0.3-3.07-1.15-4.8-0.79
		C44.72,30.87,47.04,32.16,47.14,34.65z"/>
	<path class="st0" d="M55.72,29.31c-3.13-1.89-6.25-3.79-9.71-5.88c1.24-0.41,2.13-0.71,3.02-1c0.72,1.22,2.2,1.47,3.19,2.43
		c1.17,1.14,2.17,2.4,3.29,3.57C55.7,28.61,55.66,29.01,55.72,29.31z"/>
	<path class="st1" d="M4.81,48.79c-0.09-1.34,0.36-2.36,1.76-2.76c1.38-0.39,2.92,0.33,3.26,1.49c0.38,1.27-0.26,2.11-2.19,2.87
		C6.42,50.32,5.44,49.86,4.81,48.79z M8.73,48.23c-0.02-0.84-0.53-1.26-1.28-1.29c-0.73-0.03-1.37,0.27-1.41,1.12
		C5.99,48.81,6.5,49.2,7.2,49.24C7.93,49.28,8.54,49.02,8.73,48.23z"/>
	<path class="st3" d="M9.34,36.21c-0.84,1.7-1.38,1.83-2.73,0.64c0.13-0.44,0.23-0.89,0.39-1.32c0.12-0.32,0.3-0.62,0.5-1.01
		C8.23,35.06,8.98,35.42,9.34,36.21z"/>
	<path class="st3" d="M6.05,36.87c0.16,2.4-0.08,2.59-2.21,1.85c0-0.77,0-1.54,0-2.42C4.64,36.26,5.31,36.71,6.05,36.87z"/>
	<path class="st2" d="M17.5,29.96c0.74-0.24,1.03,0.43,1.44,0.75c1.99,1.56,3.95,3.15,5.86,4.81c0.74,0.65,1.38,0.69,2.29,0.41
		c2.42-0.75,4.88-1.39,7.32-2.07c0.4-0.11,0.79-0.33,1.34,0.05c-1.04,2.57-2.04,5.2-3.18,7.77c-0.49,1.1-0.34,1.92,0.34,2.87
		c1.63,2.3,3.17,4.66,4.78,7.05c-3.7,0.91-7.17-0.47-10.4-0.31c-2.22,2.73-4.27,5.26-6.43,7.92c-0.74-1.24-1.18-2.49-1.33-3.75
		c-0.22-1.94-1.03-3.71-1.34-5.61c-0.1-0.62-0.52-0.7-0.96-0.86c-2.03-0.75-4.06-1.51-6.09-2.27c-0.58-0.22-1.21-0.3-1.29-1.16
		c-0.08-0.82,0.27-1.21,0.93-1.6c1.82-1.08,3.58-2.25,5.39-3.34c0.64-0.38,1.02-0.81,1.04-1.6c0.07-3.03,0.21-6.06,0.32-9.1
		L17.5,29.96z M19.48,49.04c0.31,1.55,1.34,2.25,3.26,2.23c3.95,0.36,6.15-2.27,8.71-4.83c-0.76-0.18-1.26-0.3-1.75-0.42
		c-2.71-0.56-5.31-1.62-8.09-1.91c-1.77-0.4-3.39-1.32-5.31-1.51c-0.07,0.15-0.17,0.32-0.22,0.51c-0.06,0.19-0.07,0.4-0.11,0.59
		c-0.93,1.19,0.33,2,0.66,2.87c0.45,1.17,1.34,2.3,2.86,2.5L19.48,49.04z"/>
	<path class="st4" d="M49.69,51.3c-0.48,0.16-0.84,0.64-1.45,0.46c-2.72-0.78-5.19-1.97-6.98-4.24c-0.18-0.23-0.24-0.54-0.33-0.76
		c0.36-0.6,0.87-0.44,1.32-0.47c1.28,2.37,3.86,3.44,6.59,2.71c2.17-0.58,3.38-1.99,3.31-3.93c-0.45,0.34-0.85,0.89-1.49,0.39
		c-0.61-0.47-0.1-0.92,0.03-1.38c1.89-0.52,3.78-1.04,5.67-1.56C55.49,46.44,53.41,49.48,49.69,51.3z"/>
	<path class="st1" d="M50.71,44.08c-0.13,0.46-0.64,0.92-0.03,1.38c0.64,0.5,1.04-0.05,1.49-0.39c0.06,1.94-1.14,3.36-3.31,3.93
		c-2.73,0.72-5.32-0.34-6.59-2.71C44.99,45.25,47.83,44.6,50.71,44.08z"/>
	<path class="st3" d="M46.71,53.56c-0.84,4.45-9.53,7.02-14.22,4.24C37.44,56.97,42.3,56.27,46.71,53.56z"/>
	<path class="st2" d="M41.23,33.35c1.45,0.21,2.73,0.91,4.09,1.38c0.66,0.23,1.23,0.52,1.81-0.08c1.44,0.67,2.09,1.99,2.8,3.32
		C46.88,36.68,43.93,35.24,41.23,33.35z"/>
	<path class="st3" d="M49.69,51.3c3.72-1.82,5.8-4.86,6.68-8.79c0.25-0.08,0.5-0.15,0.75-0.23C57.39,45.95,53,51.25,49.69,51.3z"/>
	<path class="st2" d="M17.52,29.94c-0.04-0.02-0.08-0.04-0.11-0.07c-0.01-0.01,0-0.05,0-0.08c0.03,0.06,0.06,0.11,0.08,0.17
		C17.5,29.96,17.52,29.94,17.52,29.94z"/>
	<path class="st4" d="M8.73,48.23c-0.19,0.8-0.8,1.05-1.53,1.01c-0.7-0.04-1.21-0.43-1.17-1.18c0.04-0.84,0.69-1.15,1.41-1.12
		C8.19,46.97,8.71,47.38,8.73,48.23z"/>
	<path class="st4" d="M29.7,46.01c0.5,0.12,1,0.24,1.75,0.42c-2.56,2.56-4.76,5.19-8.71,4.83c-1.09-0.74-2.17-1.48-3.26-2.23
		c0,0,0.01,0.03,0.01,0.03c-1.44-1.62-2.24-3.65-3.52-5.37c0.03-0.2,0.05-0.4,0.11-0.59c0.06-0.18,0.15-0.36,0.22-0.51
		c1.92,0.19,3.54,1.11,5.31,1.51c0.21,0.46,0.58,0.98-0.13,1.31c-0.91,0.42-1.01-0.44-1.35-1.12c-0.15,2.35,1.09,3.96,3.27,4.47
		C26.23,49.44,28.77,48.32,29.7,46.01z"/>
	<path class="st1" d="M29.7,46.01c-0.93,2.31-3.47,3.42-6.29,2.76c-2.18-0.51-3.43-2.13-3.27-4.47c0.34,0.68,0.44,1.54,1.35,1.12
		c0.71-0.33,0.34-0.85,0.13-1.31C24.39,44.4,26.99,45.45,29.7,46.01z"/>
	<path class="st3" d="M15.97,43.7c1.28,1.72,2.09,3.75,3.52,5.37c-1.52-0.2-2.41-1.32-2.86-2.5C16.3,45.7,15.04,44.88,15.97,43.7z"
		/>
	<path class="st3" d="M19.48,49.04c1.09,0.74,2.17,1.48,3.26,2.23C20.83,51.29,19.79,50.58,19.48,49.04z"/>
</g>
</svg>
