<svg xmlns="http://www.w3.org/2000/svg" xmlns:xlink="http://www.w3.org/1999/xlink" viewBox="0 0 63 66" fill="#fff" fill-rule="evenodd" stroke="#000" stroke-linecap="round" stroke-linejoin="round"><use xlink:href="#D" x=".5" y=".5"/><symbol id="D" overflow="visible"><g stroke="none" fill-rule="nonzero"><path d="M33.13 22.26a7.4 7.4 0 0 1-5.105 0L3.2 12.395c-1.384-.606-1.384-1.384 0-2L28.13.454a7.4 7.4 0 0 1 5.105 0L58.06 10.32c1.384.606 1.384 1.384 0 2z" fill="#e22329"/><path d="M29.85 62.063c.087.865-.52 1.73-1.384 1.904-.346.087-.78 0-1.038-.173L2.508 53.756c-1.47-.692-2.423-2.077-2.5-3.634V15.684c-.087-.865.52-1.73 1.384-1.904.346-.087.78 0 1.038.173l24.92 9.95c1.47.692 2.423 2.077 2.5 3.634z" fill="#404041"/><path d="M31.41 62.063c-.087.865.52 1.73 1.384 1.904.346.087.78 0 1.038-.173l24.92-9.778c1.47-.692 2.423-2.077 2.5-3.634V15.857c.087-.865-.52-1.73-1.384-1.904-.346-.087-.78 0-1.038.173l-24.92 9.95c-1.47.692-2.423 2.077-2.5 3.634z" fill="#929497"/></g></symbol></svg>