<?xml version="1.0" encoding="utf-8"?>
<!-- Generated by IcoMoon.io -->
<!DOCTYPE svg PUBLIC "-//W3C//DTD SVG 1.1//EN" "http://www.w3.org/Graphics/SVG/1.1/DTD/svg11.dtd">
<svg version="1.1" xmlns="http://www.w3.org/2000/svg" xmlns:xlink="http://www.w3.org/1999/xlink" width="720" height="1024" viewBox="0 0 700 924">
<g id="icomoon-ignore">
</g>
<path fill="#ccc" d="M288.4 419c3.2-19.6 10.4-45.6 26.6-68 21.8-29.8 58.2-55.6 129.4-55.4l7.2-33.4c-83.8-2.6-135.8 29.8-163.6 69.2-21.8 30.6-30 64-33.2 87.4l33.6 0.2zM349 419c2.8-9.8 7.2-20.4 14-29.8 12.4-16.8 31.6-31.6 69-34.6l7.2-34c-51.4 1.4-85 22.8-103.2 49-12 16.8-18 34.4-21.2 49.2zM314.4 419h34.6z"></path>
<path fill="#ccc" d="M417.8 418.8l7.4-34c-20.8 1.6-33 11-41.2 23-3 4.2-4.8 7-6.6 11h40.4zM642.2 418.8h-36l7.6-34c0 0.2 27.8 6.4 28.4 34zM81.4 385l-38.4 181c-6.8 31.8 2.8 46 27.2 46 24 0 40-14.2 46.8-46l38.6-181h40.2l-37.8 177.8c-12.4 58.4-46 79.4-94 79.4-48.4 0-73-21.2-60.6-79.4l37.8-177.8h40.2zM211.6 447.4h36.2l-4.6 22.2h1c13.2-17 33.4-27.2 54.6-27.2 29 0 44.6 13.2 36.4 51.6l-30.4 143.6h-38.2l27.6-130.4c5.2-24.8 0-34.4-19.2-34.4-15.6 0-33 12.4-38.2 37.2l-27.2 127.6h-38l40-190.2zM373.8 447.4h38.2l-40.4 190.2h-38.2l40.4-190.2zM455.4 385h128.8l-7.4 34h-88.4l-14.8 70h88.6l-7 34h-88.6l-24.4 114.6h-40.4l53.6-252.6zM600.4 447.4h38.2l-40.4 190.2h-38.2l40.4-190.2z"></path>
<path fill="#ccc" d="M694.2 438c-15.2 0-26-11.4-26-26.4 0-16 12-26.4 26-26.4 13.8 0 25.8 10.6 25.8 26.4 0.2 15.8-11.8 26.4-25.8 26.4zM694.2 389.6c-11.4 0-20.4 9-20.4 21.8 0 12 7.8 21.8 20.4 21.8 11.4 0 20.2-9 20.2-21.8 0.2-12.8-8.8-21.8-20.2-21.8zM689 426.6h-4.8v-29.2h11c7 0 10.6 2.4 10.6 8.4 0 5.4-3.2 7.4-7.6 8l8.2 12.8h-5.4l-7.6-12.6h-4.6l0.2 12.6zM694.4 410c3.6 0 6.8-0.4 6.8-4.6 0-3.6-3.4-4-6.4-4h-5.8v8.6h5.4z"></path>
</svg>
